<?xml version="1.0" encoding="utf-8"?>
<!-- Generator: Adobe Illustrator 21.1.0, SVG Export Plug-In . SVG Version: 6.00 Build 0)  -->
<svg version="1.1" id="Layer_1" xmlns="http://www.w3.org/2000/svg" xmlns:xlink="http://www.w3.org/1999/xlink" x="0px" y="0px"
	 viewBox="0 0 120 120" style="enable-background:new 0 0 120 120;" xml:space="preserve">
<style type="text/css">
	.st0{fill:#1A1A1A;}
	.st1{fill:#FFFFFF;}
</style>
<g>
	<rect class="st0" width="120" height="120"/>
	<path class="st1" d="M41.5,97.1c0.9-0.8,1.9-1.9,1.9-3.5c0-1-0.9-3-4.4-3c-1,0-2,0.1-2.5,0.1c-0.1,0-1.4-0.1-2.3-0.1
		c-0.2,0-0.3,0-0.3,0.2c0,0.1,0.1,0.1,0.2,0.1c0.2,0,0.5,0,0.7,0.1c0.7,0.1,0.8,0.5,0.9,1.1c0,0.6,0,1.2,0,4.3v3.5
		c0,1.9,0,3.5-0.1,4.3c-0.1,0.6-0.2,1-0.6,1.1c-0.2,0-0.4,0.1-0.6,0.1c-0.1,0-0.2,0.1-0.2,0.1c0,0.1,0.1,0.2,0.3,0.2
		c0.6,0,1.9-0.1,2-0.1c0.2,0,2.5,0.1,3,0.1c3.7,0,5.3-1.8,5.5-4.3C45.2,99,43.1,97.6,41.5,97.1 M37.3,91.5c0-0.1,0.1-0.2,0.3-0.2
		c0.3-0.1,1-0.1,1.2-0.1c2.1,0,3.2,1.7,3.2,3.4c0,0.8-0.3,1.5-0.8,2c-0.5,0.5-1,0.5-2.2,0.5c-0.8,0-1.4-0.1-1.5-0.1
		c-0.1,0-0.1-0.1-0.1-0.2V91.5z M40.1,105c-0.4,0-1.5,0-2.1-0.3c-0.7-0.3-0.7-0.6-0.7-1.5c0-0.3,0-2.8,0-4.3v-1.1
		c0-0.1,0-0.1,0.1-0.1c0.3,0,1.6,0,1.9,0c0.5,0.1,1.3,0.1,2.1,0.6c1.6,1,2,2.5,2,4C43.2,104.4,41.6,105,40.1,105"/>
	<path class="st1" d="M29.8,105.3c-0.2,0-0.6,0-0.9-0.1c-0.6-0.1-0.7-0.5-0.8-1.1c-0.1-0.8-0.1-2.4-0.1-4.3v-3.5c0-3.1,0-3.6,0-4.3
		c0-0.7,0.2-1,0.7-1.1c0.2,0,0.4-0.1,0.5-0.1c0.1,0,0.2,0,0.2-0.1c0-0.1-0.1-0.2-0.3-0.2c-0.6,0-1.8,0.1-1.9,0.1
		c-0.1,0-1.4-0.1-2-0.1c-0.2,0-0.3,0-0.3,0.2c0,0.1,0.1,0.1,0.2,0.1c0.1,0,0.4,0,0.6,0.1c0.4,0.1,0.6,0.4,0.7,1.1c0,0.6,0,1.2,0,4.3
		v3.5c0,1.9,0,3.5-0.1,4.3c-0.1,0.6-0.2,1-0.6,1.1c-0.2,0-0.4,0.1-0.6,0.1c-0.1,0-0.2,0.1-0.2,0.1c0,0.1,0.1,0.2,0.3,0.2
		c0.6,0,1.8-0.1,1.9-0.1c0.1,0,1.3,0.1,2.4,0.1c0.2,0,0.3-0.1,0.3-0.2C29.9,105.3,29.9,105.3,29.8,105.3"/>
	<path class="st1" d="M45.4,84.3c-0.2,0-0.6,0-1-0.1c-0.5-0.2-0.7-0.7-0.7-2.3l-0.2-10.6c0.9,1.2,9.3,12,9.9,12.6
		c0.4,0.5,0.7,0.8,0.9,0.7c0.1,0,0.2-0.1,0.2-1.4l0-11.6c0-1.2,0.1-1.6,0.7-1.8c0.2-0.1,0.4-0.1,0.5-0.1c0.1,0,0.2,0,0.2-0.1
		c0-0.1-0.1-0.1-0.3-0.1c-0.8,0-1.4,0.1-1.6,0.1c-0.2,0-1.1-0.1-2-0.1c-0.2,0-0.4,0-0.4,0.1c0,0.1,0,0.1,0.2,0.1
		c0.1,0,0.6,0,0.9,0.1c0.6,0.2,0.7,0.6,0.7,1.9l0.2,9.7c-0.6-0.7-8.1-10.5-8.5-11c-0.6-0.8-0.7-0.9-1.6-0.9c-0.1,0-1.4-0.1-2.4-0.1
		c-0.2,0-0.3,0-0.3,0.2c0,0.1,0.1,0.1,0.2,0.1c0.2,0,0.5,0.1,0.6,0.1c0.7,0.1,0.9,0.6,0.9,1.1c0,0.6,0,1.2,0,4.3l0,6.3
		c0,1.8-0.1,2.4-0.6,2.5c-0.3,0.1-0.6,0.1-0.8,0.1c-0.1,0-0.1,0-0.1,0.1c0,0.1,0.1,0.1,0.3,0.1c0.9,0,1.6-0.1,1.8-0.1
		c0.2,0,0.9,0.1,2,0.1c0.2,0,0.3,0,0.3-0.1C45.5,84.3,45.5,84.3,45.4,84.3"/>
	<path class="st1" d="M78.5,105.3c-0.2,0-0.5,0-0.8-0.1c-0.4-0.1-1-0.4-1.8-2.2c-1.3-3-4.9-11.2-5.2-11.9c-0.2-0.6-0.3-0.7-0.4-0.7
		c-0.1,0-0.2,0.1-0.5,0.8l-5,12.3c-0.4,1-0.8,1.8-1.7,1.9c-0.2,0-0.5,0-0.6,0c-0.1,0-0.2,0-0.2,0.1c0,0.1,0.1,0.2,0.4,0.2
		c1,0,2-0.1,2.3-0.1c0.2,0,1.1,0.1,1.6,0.1c0.2,0,0.3,0,0.3-0.2c0-0.1-0.1-0.1-0.2-0.1h-0.2c-0.4,0-0.8-0.2-0.8-0.6
		c0-0.3,0.1-0.8,0.3-1.3l1.3-3.5c0.1-0.1,0.1-0.2,0.2-0.2h5.1c0.1,0,0.1,0,0.2,0.1c0,0.1,1.9,4.5,2,4.9c0.1,0.3,0,0.5-0.1,0.5
		c-0.1,0-0.1,0.1-0.1,0.1c0,0.1,0.1,0.1,0.5,0.1c0.3,0,0.6,0,1.1,0c0.8,0,2,0,2.2,0c0.2,0,0.4,0,0.4-0.2
		C78.7,105.3,78.6,105.3,78.5,105.3 M72.3,99h-4.6c-0.1,0-0.1,0-0.1-0.1c0-0.1,2-5.3,2.1-5.6c0.1-0.3,0.2-0.3,0.3,0
		c0.1,0.3,2.3,5.5,2.3,5.6C72.4,98.9,72.4,99,72.3,99"/>
	<path class="st1" d="M61.9,105.3c-0.9-0.1-1.7-0.5-2.5-1.6c-1-1.4-2.1-3.3-3.3-5.4c1.7-1.2,2.5-2.6,2.5-4.2c0-1.4-0.9-2.3-1.4-2.7
		c-1.1-0.7-2.4-0.8-3.7-0.8c-0.6,0-2.2,0.1-2.4,0.1c-0.1,0-1.3-0.1-2.2-0.1c-0.2,0-0.3,0-0.3,0.2c0,0.1,0.1,0.1,0.2,0.1
		c0.2,0,0.5,0,0.7,0.1c0.7,0.1,0.8,0.5,0.9,1.1c0,0.6,0,1.2,0,4.3v3.5c0,1.9,0,3.5-0.1,4.3c-0.1,0.6-0.2,1-0.6,1.1
		c-0.2,0-0.4,0.1-0.6,0.1c-0.1,0-0.2,0.1-0.2,0.1c0,0.1,0.1,0.2,0.3,0.2c0.6,0,1.8-0.1,1.8-0.1c0.1,0,1.3,0.1,2.5,0.1
		c0.2,0,0.3-0.1,0.3-0.2c0-0.1,0-0.1-0.2-0.1c-0.2,0-0.6,0-0.9-0.1c-0.6-0.1-0.7-0.5-0.8-1.1c-0.1-0.8-0.1-2.9-0.1-4.8v-0.5
		c0-0.1,0-0.1,0.1-0.1l2.5,0c0.1,0,0.2,0,0.3,0.1c0.5,1,1.2,2.4,1.9,3.5c0.9,1.6,1.4,2.3,2.2,2.8c0.5,0.3,0.9,0.3,2.1,0.3h0.7
		c0.4,0,0.5,0,0.5-0.2C62.1,105.3,62,105.3,61.9,105.3 M54.1,98.1c-0.9,0-1.7-0.1-2-0.3c-0.1-0.1-0.1-0.1-0.1-0.2v-6
		c0-0.1,0.1-0.2,0.2-0.2c0.2-0.1,0.8-0.1,1.4-0.1c2.2,0,3.6,1.2,3.6,3.6c0,1.5-0.7,2.4-1.4,2.9C55.1,98,54.6,98.1,54.1,98.1"/>
	<path class="st1" d="M108.1,90.6c-0.4,0-1.8,0.1-1.9,0.1c-0.2,0-0.8-0.1-1.3-0.1c-0.2,0-0.3,0-0.3,0.1c0,0.1,0.1,0.1,0.3,0.2
		c0.2,0.1,0.3,0.3,0.3,0.6c0,0.3-0.1,0.6-0.3,1c-0.4,0.7-2.9,5-3.3,5.8c-0.4-0.6-3.3-5.7-3.6-6.2c-0.2-0.3-0.3-0.5-0.3-0.8
		c0-0.2,0.1-0.3,0.3-0.4c0.2-0.1,0.3-0.1,0.3-0.2c0-0.1,0-0.1-0.2-0.1c-0.8,0-1.5,0.1-1.7,0.1c-0.1,0-1.6-0.1-2-0.1
		c-0.2,0-0.3,0.1-0.3,0.1c0,0.1,0.1,0.1,0.2,0.1c0.2,0,0.6,0.1,0.8,0.3c0.4,0.2,0.8,0.7,1.3,1.5c0.7,1,3.3,5.4,3.5,5.7
		c0.3,0.6,0.4,1,0.4,2.1v1.7c0,0.3,0,1.1-0.1,2c0,0.6-0.2,1-0.6,1.1c-0.2,0-0.4,0.1-0.6,0.1c-0.1,0-0.2,0.1-0.2,0.1
		c0,0.1,0.1,0.2,0.3,0.2c0.6,0,1.8-0.1,1.9-0.1c0.1,0,1.4,0.1,2.4,0.1c0.2,0,0.3-0.1,0.3-0.2c0-0.1,0-0.1-0.2-0.1
		c-0.2,0-0.6,0-0.9-0.1c-0.6-0.1-0.8-0.5-0.8-1.1c-0.1-0.8-0.1-1.7-0.1-2v-1.7c0-0.6,0-1.3,0.3-2c0.4-0.9,3.1-5.5,3.8-6.3
		c0.4-0.5,0.7-0.8,1-1c0.3-0.2,0.7-0.3,0.9-0.3c0.2,0,0.3-0.1,0.3-0.2C108.4,90.6,108.2,90.6,108.1,90.6"/>
	<path class="st1" d="M95.4,105.3c-0.1,0-0.4,0-0.8-0.1c-0.5-0.1-1.4-0.3-2.5-1.4c-1.2-1.2-2.6-3.5-4.3-5.5c2-1.7,2.4-2.7,2.4-4.1
		c0-1.4-0.9-2.3-1.4-2.7c-1.1-0.7-2.4-0.8-3.7-0.8c-0.6,0-2.2,0.1-2.4,0.1c-0.1,0-1.3-0.1-2.2-0.1c-0.2,0-0.3,0-0.3,0.2
		c0,0.1,0.1,0.1,0.2,0.1c0.2,0,0.5,0,0.7,0.1c0.7,0.1,0.8,0.5,0.9,1.1c0,0.6,0,1.2,0,4.3v3.5c0,1.9,0,3.5-0.1,4.3
		c-0.1,0.6-0.2,1-0.6,1.1c-0.2,0-0.4,0.1-0.6,0.1c-0.1,0-0.2,0.1-0.2,0.1c0,0.1,0.1,0.2,0.3,0.2c0.6,0,1.8-0.1,1.8-0.1
		c0.1,0,1.4,0.1,2.5,0.1c0.2,0,0.3-0.1,0.3-0.2c0-0.1,0-0.1-0.2-0.1c-0.2,0-0.6,0-0.9-0.1c-0.6-0.1-0.7-0.5-0.8-1.1
		c-0.1-0.8-0.1-2.9-0.1-4.8v-0.5c0-0.1,0-0.1,0.1-0.1l2.6,0c0.1,0,0.2,0,0.3,0.1c0.4,0.5,1.4,2.3,2.2,3.4c1.2,1.5,1.9,2.4,2.8,2.9
		c0.5,0.3,1,0.4,2.1,0.4h1.5c0.4,0,0.5,0,0.5-0.2C95.6,105.3,95.5,105.3,95.4,105.3 M87.2,97.7c-0.5,0.3-0.9,0.4-1.4,0.4
		c-0.9,0-1.8-0.1-2.1-0.3c-0.1-0.1-0.1-0.1-0.1-0.2v-6c0-0.1,0.1-0.2,0.2-0.2c0.2-0.1,0.8-0.1,1.4-0.1c2.2,0,3.5,1.2,3.5,3.7
		C88.6,96.4,87.9,97.3,87.2,97.7"/>
	<path class="st1" d="M38,76.8c0-4.6-3.2-7.4-7.5-7.4c-5.3,0-7.5,4.5-7.5,7.7c0,3.6,2.2,7.8,7.4,7.8C35,84.8,38,81.2,38,76.8
		 M30.9,84.1c-3.4,0-6.1-3-6.1-7.6c0-4.3,2.3-6.5,5.5-6.5c3,0,5.8,2.5,5.8,7.3C36.1,83.1,32.6,84.1,30.9,84.1"/>
	<path class="st1" d="M83.3,84.8c4.6,0,7.6-3.7,7.6-8.1c0-4.6-3.2-7.4-7.5-7.4c-5.3,0-7.5,4.5-7.5,7.7C75.9,80.6,78,84.8,83.3,84.8
		 M83.3,70c3,0,5.8,2.5,5.8,7.3c0,5.7-3.5,6.8-5.2,6.8c-3.5,0-6.1-3-6.1-7.6C77.7,72.2,80.1,70,83.3,70"/>
	<path class="st1" d="M59,69.9c0.2,0,0.5,0,0.7,0.1c0.7,0.1,0.8,0.4,0.9,1.1c0,0.6,0,1.2,0,4.3v3.5c0,1.9,0,3.5-0.1,4.3
		c-0.1,0.6-0.2,1-0.6,1.1c-0.2,0-0.4,0.1-0.6,0.1c-0.1,0-0.2,0.1-0.2,0.1c0,0.1,0.1,0.2,0.3,0.2c0.6,0,1.8-0.1,1.9-0.1
		c0.2,0,2.4,0.2,4,0.2c3.2,0,4.6-1.4,5.4-2.3c1-1.2,2.1-3.1,2.1-5.6c0-2.3-1-4-1.9-5c-2.2-2.4-5.4-2.3-7.2-2.3
		c-1.1,0-2.2,0.1-2.4,0.1c-0.1,0-1.3-0.1-2.2-0.1c-0.2,0-0.3,0-0.3,0.2C58.8,69.9,58.9,69.9,59,69.9 M62.2,75.1c0-1.5,0-3.5,0-4.2
		c0-0.2,0.1-0.3,0.2-0.4c0.1-0.1,0.6-0.1,1-0.1c2.6,0,4.1,0.3,5.9,2.2c0.8,0.9,1.8,2.5,1.8,5c0,1.8-0.5,3.7-1.5,4.7
		c-1.1,1.2-2.4,1.9-4.2,1.9c-2.2,0-2.7-0.4-3-0.8c-0.2-0.2-0.2-1-0.2-1.5c0-0.4,0-2.2,0-4.3V75.1z"/>
	<polygon class="st1" points="35.8,63.8 32.1,63.8 32.1,60.6 35.7,60.6 35.7,59.7 32.1,59.7 32.1,56.6 35.8,56.6 35.8,55.7 31,55.7 
		30.9,64.7 35.8,64.7 	"/>
	<path class="st1" d="M93.5,69.9c0.2,0,0.5,0.1,0.6,0.1c0.7,0.1,0.9,0.6,0.9,1.1c0.1,0.6,0,1.2,0,4.3l0,6.3c0,1.8-0.1,2.4-0.6,2.5
		c-0.3,0.1-0.6,0.1-0.8,0.1c-0.1,0-0.2,0-0.2,0.1c0,0.1,0.1,0.1,0.3,0.1c0.9,0,1.7-0.1,1.8-0.1c0.2,0,0.9,0.1,2,0.1
		c0.2,0,0.3,0,0.3-0.1c0-0.1-0.1-0.1-0.2-0.1c-0.2,0-0.6,0-0.9-0.1c-0.5-0.2-0.7-0.7-0.7-2.3L96,71.3c0.9,1.2,9.3,12,9.9,12.6
		c0.4,0.5,0.7,0.8,0.9,0.7c0.1,0,0.2-0.1,0.2-1.4l0-11.6c0-1.2,0.1-1.6,0.7-1.8c0.2-0.1,0.4-0.1,0.5-0.1c0.1,0,0.2,0,0.2-0.1
		c0-0.1-0.1-0.1-0.3-0.1c-0.8,0-1.4,0.1-1.6,0.1c-0.2,0-1.1-0.1-2-0.1c-0.2,0-0.4,0-0.4,0.1c0,0.1,0,0.1,0.1,0.1
		c0.2,0,0.6,0,0.9,0.1c0.6,0.2,0.7,0.6,0.7,1.9l0.2,9.7c-0.6-0.7-8.1-10.5-8.5-11c-0.6-0.8-0.7-0.9-1.6-0.9c-0.1,0-1.4-0.1-2.4-0.1
		c-0.2,0-0.3,0-0.3,0.2C93.3,69.9,93.4,69.9,93.5,69.9"/>
	<path class="st1" d="M21.7,102.8c-0.1,0-0.2,0.1-0.2,0.3c-0.1,0.4-0.3,0.9-0.5,1.2c-0.5,0.6-1.8,0.6-2.9,0.6
		c-1.5,0-2.4-0.1-2.7-0.5c-0.4-0.3-0.4-1.6-0.4-4.5v-3.5c0-3.1,0-3.6,0-4.3c0-0.7,0.2-1,0.8-1.1c0.2,0,0.5-0.1,0.6-0.1
		c0.1,0,0.2,0,0.2-0.1c0-0.1-0.1-0.2-0.3-0.2c-0.6,0-2,0.1-2.1,0.1c-0.1,0-1.3-0.1-2.2-0.1c-0.2,0-0.3,0-0.3,0.2
		c0,0.1,0.1,0.1,0.2,0.1c0.2,0,0.5,0,0.7,0.1c0.6,0.1,0.8,0.5,0.8,1.1c0,0.6,0,1.2,0,4.3v3.5c0,1.9,0,3.5-0.1,4.3
		c-0.1,0.6-0.2,1-0.6,1.1c-0.2,0-0.4,0.1-0.6,0.1c-0.1,0-0.2,0.1-0.2,0.1c0,0.1,0.1,0.2,0.3,0.2c0.6,0,1.8-0.1,1.9-0.1
		c1.1,0,3.3,0.1,6.1,0.1c1,0,1.1-0.1,1.2-0.5c0.2-0.6,0.3-1.8,0.3-2C21.8,102.9,21.8,102.8,21.7,102.8"/>
	<polygon class="st1" points="21.4,60.6 26.4,60.6 26.4,64.7 27.6,64.7 27.6,55.7 26.5,55.7 26.4,59.7 21.4,59.7 21.4,55.7 
		20.2,55.7 20.1,64.7 21.3,64.7 	"/>
	<path class="st1" d="M13.1,71.1c0,0.6,0,1.2,0,4.3v3.5c0,1.9,0,3.5-0.1,4.3c-0.1,0.6-0.2,1-0.6,1.1c-0.2,0-0.4,0.1-0.6,0.1
		c-0.1,0-0.2,0.1-0.2,0.1c0,0.1,0.1,0.1,0.3,0.1c0.6,0,1.8-0.1,1.9-0.1c1.1,0,2.7,0.1,5.6,0.1c1.1,0,1.1-0.1,1.2-0.5
		c0.2-0.6,0.3-1.8,0.3-2c0-0.2,0-0.3-0.1-0.3c-0.1,0-0.2,0.1-0.2,0.3c-0.1,0.4-0.3,0.9-0.5,1.2c-0.5,0.6-1.5,0.6-2.6,0.6
		c-1.6,0-2.2-0.1-2.5-0.5c-0.3-0.3-0.4-1.6-0.4-4.5v-3.5c0-3.1,0-3.6,0-4.3c0-0.7,0.2-1,0.8-1.1c0.2,0,0.5-0.1,0.6-0.1
		c0.1,0,0.2,0,0.2-0.1c0-0.1-0.1-0.2-0.3-0.2c-0.6,0-2,0.1-2.1,0.1c-0.1,0-1.3-0.1-2.2-0.1c-0.2,0-0.3,0-0.3,0.2
		c0,0.1,0.1,0.1,0.2,0.1c0.2,0,0.5,0,0.7,0.1C12.9,70.1,13.1,70.4,13.1,71.1"/>
	<polygon class="st1" points="13.9,64.7 15.1,64.7 15.1,56.6 18.1,56.6 18.1,55.7 11,55.7 11,56.6 14,56.6 	"/>
</g>
</svg>
